  0
SECTION
  2
HEADER
  9
$ANGBASE
  50
0.0
  9
$ANGDIR
  70
  1
  9
$MEASUREMENT
  70
0
  0
ENDSEC
  0
SECTION
  2
TABLES
  0
TABLE
  2
LTYPE
  70
1
  0
LTYPE
  2
CONTINUOUS
  70
0
  3
Solid line
  72
65
  73
0
  40
0.0
  0
ENDTAB
  0
TABLE
  2
STYLE
  70
4
  0
STYLE
  2
KICAD
  70
0
  40
0
  41
1
  42
1
  50
0
  71
0
  3
isocp.shx
  0
STYLE
  2
KICADB
  70
0
  40
0
  41
1
  42
1
  50
0
  71
0
  3
isocp.shx
  0
STYLE
  2
KICADI
  70
0
  40
0
  41
1
  42
1
  50
15
  71
0
  3
isocp.shx
  0
STYLE
  2
KICADBI
  70
0
  40
0
  41
1
  42
1
  50
15
  71
0
  3
isocp.shx
  0
ENDTAB
  0
TABLE
  2
LAYER
  70
30
  0
LAYER
  2
BLACK
  70
0
  62
7
  6
CONTINUOUS
  0
LAYER
  2
GRAY1
  70
0
  62
251
  6
CONTINUOUS
  0
LAYER
  2
GRAY2
  70
0
  62
8
  6
CONTINUOUS
  0
LAYER
  2
GRAY3
  70
0
  62
9
  6
CONTINUOUS
  0
LAYER
  2
WHITE
  70
0
  62
7
  6
CONTINUOUS
  0
LAYER
  2
LYELLOW
  70
0
  62
51
  6
CONTINUOUS
  0
LAYER
  2
BLUE1
  70
0
  62
178
  6
CONTINUOUS
  0
LAYER
  2
GREEN1
  70
0
  62
98
  6
CONTINUOUS
  0
LAYER
  2
CYAN1
  70
0
  62
138
  6
CONTINUOUS
  0
LAYER
  2
RED1
  70
0
  62
18
  6
CONTINUOUS
  0
LAYER
  2
MAGENTA1
  70
0
  62
228
  6
CONTINUOUS
  0
LAYER
  2
BROWN1
  70
0
  62
58
  6
CONTINUOUS
  0
LAYER
  2
BLUE2
  70
0
  62
5
  6
CONTINUOUS
  0
LAYER
  2
GREEN2
  70
0
  62
3
  6
CONTINUOUS
  0
LAYER
  2
CYAN2
  70
0
  62
4
  6
CONTINUOUS
  0
LAYER
  2
RED2
  70
0
  62
1
  6
CONTINUOUS
  0
LAYER
  2
MAGENTA2
  70
0
  62
6
  6
CONTINUOUS
  0
LAYER
  2
BROWN2
  70
0
  62
54
  6
CONTINUOUS
  0
LAYER
  2
BLUE3
  70
0
  62
171
  6
CONTINUOUS
  0
LAYER
  2
GREEN3
  70
0
  62
91
  6
CONTINUOUS
  0
LAYER
  2
CYAN3
  70
0
  62
131
  6
CONTINUOUS
  0
LAYER
  2
RED3
  70
0
  62
11
  6
CONTINUOUS
  0
LAYER
  2
MAGENTA3
  70
0
  62
221
  6
CONTINUOUS
  0
LAYER
  2
YELLOW3
  70
0
  62
2
  6
CONTINUOUS
  0
LAYER
  2
BLUE4
  70
0
  62
5
  6
CONTINUOUS
  0
LAYER
  2
GREEN4
  70
0
  62
3
  6
CONTINUOUS
  0
LAYER
  2
CYAN4
  70
0
  62
4
  6
CONTINUOUS
  0
LAYER
  2
RED4
  70
0
  62
1
  6
CONTINUOUS
  0
LAYER
  2
MAGENTA4
  70
0
  62
6
  6
CONTINUOUS
  0
LAYER
  2
YELLOW4
  70
0
  62
2
  6
CONTINUOUS
  0
ENDTAB
  0
ENDSEC
  0
SECTION
  2
ENTITIES
0
LINE
8
Black
10
262.004
20
-93.9508
11
262.009
21
-93.9508
0
LINE
8
Black
10
262.009
20
-93.9508
11
263.035
21
-94.1317
0
LINE
8
Black
10
263.035
20
-94.1317
11
263.035
21
-94.1317
0
LINE
8
Black
10
263.035
20
-94.1317
11
263.043
21
-94.1347
0
LINE
8
Black
10
263.043
20
-94.1347
11
263.051
21
-94.1376
0
LINE
8
Black
10
263.051
20
-94.1376
11
263.051
21
-94.1376
0
LINE
8
Black
10
263.051
20
-94.1376
11
263.953
21
-94.6586
0
LINE
8
Black
10
263.953
20
-94.6586
11
263.967
21
-94.6697
0
LINE
8
Black
10
263.967
20
-94.6697
11
263.967
21
-94.6697
0
LINE
8
Black
10
263.967
20
-94.6697
11
264.636
21
-95.4679
0
LINE
8
Black
10
264.636
20
-95.4679
11
264.636
21
-95.4679
0
LINE
8
Black
10
264.636
20
-95.4679
11
264.645
21
-95.4829
0
LINE
8
Black
10
264.645
20
-95.4829
11
265.001
21
-96.462
0
LINE
8
Black
10
265.001
20
-96.462
11
265.003
21
-96.4684
0
LINE
8
Black
10
265.003
20
-96.4684
11
265.004
21
-96.4747
0
LINE
8
Black
10
265.004
20
-96.4747
11
265.05
21
-96.9956
0
LINE
8
Black
10
265.05
20
-96.9956
11
265.05
21
-96.9978
0
LINE
8
Black
10
265.05
20
-96.9978
11
265.05
21
-97
0
LINE
8
Black
10
265.05
20
-97
11
265.05
21
-147
0
LINE
8
Black
10
265.05
20
-147
11
265.049
21
-147.004
0
LINE
8
Black
10
265.049
20
-147.004
11
265.049
21
-147.009
0
LINE
8
Black
10
265.049
20
-147.009
11
264.868
21
-148.035
0
LINE
8
Black
10
264.868
20
-148.035
11
264.868
21
-148.035
0
LINE
8
Black
10
264.868
20
-148.035
11
264.865
21
-148.043
0
LINE
8
Black
10
264.865
20
-148.043
11
264.862
21
-148.051
0
LINE
8
Black
10
264.862
20
-148.051
11
264.862
21
-148.051
0
LINE
8
Black
10
264.862
20
-148.051
11
264.341
21
-148.953
0
LINE
8
Black
10
264.341
20
-148.953
11
264.341
21
-148.953
0
LINE
8
Black
10
264.341
20
-148.953
11
264.33
21
-148.967
0
LINE
8
Black
10
264.33
20
-148.967
11
263.532
21
-149.636
0
LINE
8
Black
10
263.532
20
-149.636
11
263.532
21
-149.636
0
LINE
8
Black
10
263.532
20
-149.636
11
263.527
21
-149.64
0
LINE
8
Black
10
263.527
20
-149.64
11
263.517
21
-149.645
0
LINE
8
Black
10
263.517
20
-149.645
11
263.517
21
-149.645
0
LINE
8
Black
10
263.517
20
-149.645
11
262.538
21
-150.001
0
LINE
8
Black
10
262.538
20
-150.001
11
262.532
21
-150.003
0
LINE
8
Black
10
262.532
20
-150.003
11
262.525
21
-150.004
0
LINE
8
Black
10
262.525
20
-150.004
11
262.004
21
-150.05
0
LINE
8
Black
10
262.004
20
-150.05
11
262.002
21
-150.05
0
LINE
8
Black
10
262.002
20
-150.05
11
262
21
-150.05
0
LINE
8
Black
10
262
20
-150.05
11
203
21
-150.05
0
LINE
8
Black
10
203
20
-150.05
11
202.996
21
-150.049
0
LINE
8
Black
10
202.996
20
-150.049
11
202.991
21
-150.049
0
LINE
8
Black
10
202.991
20
-150.049
11
201.965
21
-149.868
0
LINE
8
Black
10
201.965
20
-149.868
11
201.965
21
-149.868
0
LINE
8
Black
10
201.965
20
-149.868
11
201.957
21
-149.865
0
LINE
8
Black
10
201.957
20
-149.865
11
201.949
21
-149.862
0
LINE
8
Black
10
201.949
20
-149.862
11
201.949
21
-149.862
0
LINE
8
Black
10
201.949
20
-149.862
11
201.047
21
-149.341
0
LINE
8
Black
10
201.047
20
-149.341
11
201.047
21
-149.341
0
LINE
8
Black
10
201.047
20
-149.341
11
201.033
21
-149.33
0
LINE
8
Black
10
201.033
20
-149.33
11
200.364
21
-148.532
0
LINE
8
Black
10
200.364
20
-148.532
11
200.364
21
-148.532
0
LINE
8
Black
10
200.364
20
-148.532
11
200.36
21
-148.527
0
LINE
8
Black
10
200.36
20
-148.527
11
200.355
21
-148.517
0
LINE
8
Black
10
200.355
20
-148.517
11
200.355
21
-148.517
0
LINE
8
Black
10
200.355
20
-148.517
11
199.999
21
-147.538
0
LINE
8
Black
10
199.999
20
-147.538
11
199.997
21
-147.532
0
LINE
8
Black
10
199.997
20
-147.532
11
199.996
21
-147.525
0
LINE
8
Black
10
199.996
20
-147.525
11
199.95
21
-147.004
0
LINE
8
Black
10
199.95
20
-147.004
11
199.95
21
-147.002
0
LINE
8
Black
10
199.95
20
-147.002
11
199.95
21
-147
0
LINE
8
Black
10
199.95
20
-147
11
199.95
21
-131
0
LINE
8
Black
10
199.95
20
-131
11
199.951
21
-130.996
0
LINE
8
Black
10
199.951
20
-130.996
11
199.951
21
-130.991
0
LINE
8
Black
10
199.951
20
-130.991
11
199.981
21
-130.82
0
LINE
8
Black
10
199.981
20
-130.82
11
199.981
21
-130.82
0
LINE
8
Black
10
199.981
20
-130.82
11
199.984
21
-130.811
0
LINE
8
Black
10
199.984
20
-130.811
11
199.987
21
-130.804
0
LINE
8
Black
10
199.987
20
-130.804
11
199.987
21
-130.804
0
LINE
8
Black
10
199.987
20
-130.804
11
200.074
21
-130.654
0
LINE
8
Black
10
200.074
20
-130.654
11
200.074
21
-130.654
0
LINE
8
Black
10
200.074
20
-130.654
11
200.079
21
-130.647
0
LINE
8
Black
10
200.079
20
-130.647
11
200.085
21
-130.64
0
LINE
8
Black
10
200.085
20
-130.64
11
200.085
21
-130.64
0
LINE
8
Black
10
200.085
20
-130.64
11
200.218
21
-130.529
0
LINE
8
Black
10
200.218
20
-130.529
11
200.218
21
-130.529
0
LINE
8
Black
10
200.218
20
-130.529
11
200.233
21
-130.52
0
LINE
8
Black
10
200.233
20
-130.52
11
200.396
21
-130.461
0
LINE
8
Black
10
200.396
20
-130.461
11
200.402
21
-130.459
0
LINE
8
Black
10
200.402
20
-130.459
11
200.409
21
-130.458
0
LINE
8
Black
10
200.409
20
-130.458
11
200.495
21
-130.45
0
LINE
8
Black
10
200.495
20
-130.45
11
200.498
21
-130.45
0
LINE
8
Black
10
200.498
20
-130.45
11
200.5
21
-130.45
0
LINE
8
Black
10
200.5
20
-130.45
11
204.498
21
-130.45
0
LINE
8
Black
10
204.498
20
-130.45
11
204.576
21
-130.443
0
LINE
8
Black
10
204.576
20
-130.443
11
204.725
21
-130.389
0
LINE
8
Black
10
204.725
20
-130.389
11
204.844
21
-130.289
0
LINE
8
Black
10
204.844
20
-130.289
11
204.922
21
-130.154
0
LINE
8
Black
10
204.922
20
-130.154
11
204.95
21
-129.996
0
LINE
8
Black
10
204.95
20
-129.996
11
204.95
21
-114.002
0
LINE
8
Black
10
204.95
20
-114.002
11
204.943
21
-113.924
0
LINE
8
Black
10
204.943
20
-113.924
11
204.889
21
-113.775
0
LINE
8
Black
10
204.889
20
-113.775
11
204.789
21
-113.656
0
LINE
8
Black
10
204.789
20
-113.656
11
204.654
21
-113.578
0
LINE
8
Black
10
204.654
20
-113.578
11
204.496
21
-113.55
0
LINE
8
Black
10
204.496
20
-113.55
11
200.5
21
-113.55
0
LINE
8
Black
10
200.5
20
-113.55
11
200.496
21
-113.549
0
LINE
8
Black
10
200.496
20
-113.549
11
200.491
21
-113.549
0
LINE
8
Black
10
200.491
20
-113.549
11
200.32
21
-113.519
0
LINE
8
Black
10
200.32
20
-113.519
11
200.32
21
-113.519
0
LINE
8
Black
10
200.32
20
-113.519
11
200.311
21
-113.516
0
LINE
8
Black
10
200.311
20
-113.516
11
200.304
21
-113.513
0
LINE
8
Black
10
200.304
20
-113.513
11
200.304
21
-113.513
0
LINE
8
Black
10
200.304
20
-113.513
11
200.154
21
-113.426
0
LINE
8
Black
10
200.154
20
-113.426
11
200.14
21
-113.415
0
LINE
8
Black
10
200.14
20
-113.415
11
200.14
21
-113.415
0
LINE
8
Black
10
200.14
20
-113.415
11
200.029
21
-113.282
0
LINE
8
Black
10
200.029
20
-113.282
11
200.029
21
-113.282
0
LINE
8
Black
10
200.029
20
-113.282
11
200.02
21
-113.267
0
LINE
8
Black
10
200.02
20
-113.267
11
199.961
21
-113.104
0
LINE
8
Black
10
199.961
20
-113.104
11
199.959
21
-113.097
0
LINE
8
Black
10
199.959
20
-113.097
11
199.958
21
-113.091
0
LINE
8
Black
10
199.958
20
-113.091
11
199.95
21
-113.004
0
LINE
8
Black
10
199.95
20
-113.004
11
199.95
21
-113.002
0
LINE
8
Black
10
199.95
20
-113.002
11
199.95
21
-113
0
LINE
8
Black
10
199.95
20
-113
11
199.95
21
-97
0
LINE
8
Black
10
199.95
20
-97
11
199.951
21
-96.9957
0
LINE
8
Black
10
199.951
20
-96.9957
11
199.951
21
-96.9913
0
LINE
8
Black
10
199.951
20
-96.9913
11
200.132
21
-95.9653
0
LINE
8
Black
10
200.132
20
-95.9653
11
200.132
21
-95.9653
0
LINE
8
Black
10
200.132
20
-95.9653
11
200.135
21
-95.9571
0
LINE
8
Black
10
200.135
20
-95.9571
11
200.138
21
-95.9489
0
LINE
8
Black
10
200.138
20
-95.9489
11
200.138
21
-95.9489
0
LINE
8
Black
10
200.138
20
-95.9489
11
200.659
21
-95.0466
0
LINE
8
Black
10
200.659
20
-95.0466
11
200.67
21
-95.0333
0
LINE
8
Black
10
200.67
20
-95.0333
11
200.67
21
-95.0333
0
LINE
8
Black
10
200.67
20
-95.0333
11
201.468
21
-94.3636
0
LINE
8
Black
10
201.468
20
-94.3636
11
201.468
21
-94.3636
0
LINE
8
Black
10
201.468
20
-94.3636
11
201.483
21
-94.3549
0
LINE
8
Black
10
201.483
20
-94.3549
11
202.462
21
-93.9986
0
LINE
8
Black
10
202.462
20
-93.9986
11
202.468
21
-93.9975
0
LINE
8
Black
10
202.468
20
-93.9975
11
202.475
21
-93.9958
0
LINE
8
Black
10
202.475
20
-93.9958
11
202.996
21
-93.9502
0
LINE
8
Black
10
202.996
20
-93.9502
11
202.998
21
-93.9504
0
LINE
8
Black
10
202.998
20
-93.9504
11
203
21
-93.95
0
LINE
8
Black
10
203
20
-93.95
11
262
21
-93.95
0
LINE
8
Black
10
262
20
-93.95
11
262.004
21
-93.9508
0
LINE
8
Black
10
203.002
20
-94.05
11
202.49
21
-94.0948
0
LINE
8
Black
10
202.49
20
-94.0948
11
201.525
21
-94.4459
0
LINE
8
Black
10
201.525
20
-94.4459
11
200.741
21
-95.1043
0
LINE
8
Black
10
200.741
20
-95.1043
11
200.229
21
-95.9913
0
LINE
8
Black
10
200.229
20
-95.9913
11
200.05
21
-97.0044
0
LINE
8
Black
10
200.05
20
-97.0044
11
200.05
21
-112.998
0
LINE
8
Black
10
200.05
20
-112.998
11
200.057
21
-113.076
0
LINE
8
Black
10
200.057
20
-113.076
11
200.111
21
-113.225
0
LINE
8
Black
10
200.111
20
-113.225
11
200.211
21
-113.344
0
LINE
8
Black
10
200.211
20
-113.344
11
200.346
21
-113.422
0
LINE
8
Black
10
200.346
20
-113.422
11
200.504
21
-113.45
0
LINE
8
Black
10
200.504
20
-113.45
11
204.5
21
-113.45
0
LINE
8
Black
10
204.5
20
-113.45
11
204.504
21
-113.451
0
LINE
8
Black
10
204.504
20
-113.451
11
204.509
21
-113.451
0
LINE
8
Black
10
204.509
20
-113.451
11
204.68
21
-113.481
0
LINE
8
Black
10
204.68
20
-113.481
11
204.68
21
-113.481
0
LINE
8
Black
10
204.68
20
-113.481
11
204.689
21
-113.484
0
LINE
8
Black
10
204.689
20
-113.484
11
204.696
21
-113.487
0
LINE
8
Black
10
204.696
20
-113.487
11
204.696
21
-113.487
0
LINE
8
Black
10
204.696
20
-113.487
11
204.846
21
-113.574
0
LINE
8
Black
10
204.846
20
-113.574
11
204.846
21
-113.574
0
LINE
8
Black
10
204.846
20
-113.574
11
204.853
21
-113.579
0
LINE
8
Black
10
204.853
20
-113.579
11
204.86
21
-113.585
0
LINE
8
Black
10
204.86
20
-113.585
11
204.86
21
-113.585
0
LINE
8
Black
10
204.86
20
-113.585
11
204.971
21
-113.718
0
LINE
8
Black
10
204.971
20
-113.718
11
204.971
21
-113.718
0
LINE
8
Black
10
204.971
20
-113.718
11
204.98
21
-113.733
0
LINE
8
Black
10
204.98
20
-113.733
11
205.039
21
-113.896
0
LINE
8
Black
10
205.039
20
-113.896
11
205.041
21
-113.903
0
LINE
8
Black
10
205.041
20
-113.903
11
205.042
21
-113.909
0
LINE
8
Black
10
205.042
20
-113.909
11
205.05
21
-113.996
0
LINE
8
Black
10
205.05
20
-113.996
11
205.05
21
-113.998
0
LINE
8
Black
10
205.05
20
-113.998
11
205.05
21
-114
0
LINE
8
Black
10
205.05
20
-114
11
205.05
21
-130
0
LINE
8
Black
10
205.05
20
-130
11
205.049
21
-130.004
0
LINE
8
Black
10
205.049
20
-130.004
11
205.049
21
-130.009
0
LINE
8
Black
10
205.049
20
-130.009
11
205.019
21
-130.18
0
LINE
8
Black
10
205.019
20
-130.18
11
205.019
21
-130.18
0
LINE
8
Black
10
205.019
20
-130.18
11
205.016
21
-130.189
0
LINE
8
Black
10
205.016
20
-130.189
11
205.013
21
-130.196
0
LINE
8
Black
10
205.013
20
-130.196
11
205.013
21
-130.196
0
LINE
8
Black
10
205.013
20
-130.196
11
204.926
21
-130.346
0
LINE
8
Black
10
204.926
20
-130.346
11
204.915
21
-130.36
0
LINE
8
Black
10
204.915
20
-130.36
11
204.915
21
-130.36
0
LINE
8
Black
10
204.915
20
-130.36
11
204.782
21
-130.471
0
LINE
8
Black
10
204.782
20
-130.471
11
204.782
21
-130.471
0
LINE
8
Black
10
204.782
20
-130.471
11
204.767
21
-130.48
0
LINE
8
Black
10
204.767
20
-130.48
11
204.604
21
-130.539
0
LINE
8
Black
10
204.604
20
-130.539
11
204.597
21
-130.541
0
LINE
8
Black
10
204.597
20
-130.541
11
204.591
21
-130.542
0
LINE
8
Black
10
204.591
20
-130.542
11
204.504
21
-130.55
0
LINE
8
Black
10
204.504
20
-130.55
11
204.502
21
-130.55
0
LINE
8
Black
10
204.502
20
-130.55
11
204.5
21
-130.55
0
LINE
8
Black
10
204.5
20
-130.55
11
200.501
21
-130.55
0
LINE
8
Black
10
200.501
20
-130.55
11
200.424
21
-130.557
0
LINE
8
Black
10
200.424
20
-130.557
11
200.275
21
-130.611
0
LINE
8
Black
10
200.275
20
-130.611
11
200.156
21
-130.711
0
LINE
8
Black
10
200.156
20
-130.711
11
200.078
21
-130.846
0
LINE
8
Black
10
200.078
20
-130.846
11
200.05
21
-131.004
0
LINE
8
Black
10
200.05
20
-131.004
11
200.05
21
-146.998
0
LINE
8
Black
10
200.05
20
-146.998
11
200.095
21
-147.51
0
LINE
8
Black
10
200.095
20
-147.51
11
200.446
21
-148.475
0
LINE
8
Black
10
200.446
20
-148.475
11
201.104
21
-149.259
0
LINE
8
Black
10
201.104
20
-149.259
11
201.991
21
-149.771
0
LINE
8
Black
10
201.991
20
-149.771
11
203.004
21
-149.95
0
LINE
8
Black
10
203.004
20
-149.95
11
261.998
21
-149.95
0
LINE
8
Black
10
261.998
20
-149.95
11
262.51
21
-149.905
0
LINE
8
Black
10
262.51
20
-149.905
11
263.475
21
-149.554
0
LINE
8
Black
10
263.475
20
-149.554
11
264.259
21
-148.896
0
LINE
8
Black
10
264.259
20
-148.896
11
264.771
21
-148.009
0
LINE
8
Black
10
264.771
20
-148.009
11
264.95
21
-146.996
0
LINE
8
Black
10
264.95
20
-146.996
11
264.95
21
-97.0022
0
LINE
8
Black
10
264.95
20
-97.0022
11
264.905
21
-96.49
0
LINE
8
Black
10
264.905
20
-96.49
11
264.554
21
-95.5254
0
LINE
8
Black
10
264.554
20
-95.5254
11
263.896
21
-94.7408
0
LINE
8
Black
10
263.896
20
-94.7408
11
263.009
21
-94.2286
0
LINE
8
Black
10
263.009
20
-94.2286
11
261.996
21
-94.05
0
LINE
8
Black
10
261.996
20
-94.05
11
203.002
21
-94.05
0
LINE
8
Black
10
244.809
20
-147.032
11
244.483
21
-146.913
0
LINE
8
Black
10
244.483
20
-146.913
11
244.468
21
-146.904
0
LINE
8
Black
10
244.468
20
-146.904
11
244.468
21
-146.904
0
LINE
8
Black
10
244.468
20
-146.904
11
244.202
21
-146.681
0
LINE
8
Black
10
244.202
20
-146.681
11
244.202
21
-146.681
0
LINE
8
Black
10
244.202
20
-146.681
11
244.191
21
-146.668
0
LINE
8
Black
10
244.191
20
-146.668
11
244.017
21
-146.367
0
LINE
8
Black
10
244.017
20
-146.367
11
244.017
21
-146.367
0
LINE
8
Black
10
244.017
20
-146.367
11
244.014
21
-146.36
0
LINE
8
Black
10
244.014
20
-146.36
11
244.011
21
-146.351
0
LINE
8
Black
10
244.011
20
-146.351
11
244.011
21
-146.351
0
LINE
8
Black
10
244.011
20
-146.351
11
243.951
21
-146.009
0
LINE
8
Black
10
243.951
20
-146.009
11
243.951
21
-146.004
0
LINE
8
Black
10
243.951
20
-146.004
11
243.95
21
-146
0
LINE
8
Black
10
243.95
20
-146
11
243.95
21
-131
0
LINE
8
Black
10
243.95
20
-131
11
243.951
21
-130.996
0
LINE
8
Black
10
243.951
20
-130.996
11
243.951
21
-130.991
0
LINE
8
Black
10
243.951
20
-130.991
11
244.011
21
-130.649
0
LINE
8
Black
10
244.011
20
-130.649
11
244.011
21
-130.649
0
LINE
8
Black
10
244.011
20
-130.649
11
244.014
21
-130.64
0
LINE
8
Black
10
244.014
20
-130.64
11
244.017
21
-130.633
0
LINE
8
Black
10
244.017
20
-130.633
11
244.017
21
-130.633
0
LINE
8
Black
10
244.017
20
-130.633
11
244.191
21
-130.332
0
LINE
8
Black
10
244.191
20
-130.332
11
244.202
21
-130.319
0
LINE
8
Black
10
244.202
20
-130.319
11
244.202
21
-130.319
0
LINE
8
Black
10
244.202
20
-130.319
11
244.468
21
-130.096
0
LINE
8
Black
10
244.468
20
-130.096
11
244.468
21
-130.096
0
LINE
8
Black
10
244.468
20
-130.096
11
244.483
21
-130.087
0
LINE
8
Black
10
244.483
20
-130.087
11
244.809
21
-129.968
0
LINE
8
Black
10
244.809
20
-129.968
11
244.826
21
-129.965
0
LINE
8
Black
10
244.826
20
-129.965
11
245.174
21
-129.965
0
LINE
8
Black
10
245.174
20
-129.965
11
245.191
21
-129.968
0
LINE
8
Black
10
245.191
20
-129.968
11
245.517
21
-130.087
0
LINE
8
Black
10
245.517
20
-130.087
11
245.532
21
-130.096
0
LINE
8
Black
10
245.532
20
-130.096
11
245.532
21
-130.096
0
LINE
8
Black
10
245.532
20
-130.096
11
245.798
21
-130.319
0
LINE
8
Black
10
245.798
20
-130.319
11
245.809
21
-130.332
0
LINE
8
Black
10
245.809
20
-130.332
11
245.809
21
-130.332
0
LINE
8
Black
10
245.809
20
-130.332
11
245.983
21
-130.633
0
LINE
8
Black
10
245.983
20
-130.633
11
245.983
21
-130.633
0
LINE
8
Black
10
245.983
20
-130.633
11
245.986
21
-130.64
0
LINE
8
Black
10
245.986
20
-130.64
11
245.989
21
-130.649
0
LINE
8
Black
10
245.989
20
-130.649
11
245.989
21
-130.649
0
LINE
8
Black
10
245.989
20
-130.649
11
246.049
21
-130.991
0
LINE
8
Black
10
246.049
20
-130.991
11
246.049
21
-130.996
0
LINE
8
Black
10
246.049
20
-130.996
11
246.05
21
-131
0
LINE
8
Black
10
246.05
20
-131
11
246.05
21
-146
0
LINE
8
Black
10
246.05
20
-146
11
246.049
21
-146.004
0
LINE
8
Black
10
246.049
20
-146.004
11
246.049
21
-146.009
0
LINE
8
Black
10
246.049
20
-146.009
11
245.989
21
-146.351
0
LINE
8
Black
10
245.989
20
-146.351
11
245.989
21
-146.351
0
LINE
8
Black
10
245.989
20
-146.351
11
245.986
21
-146.36
0
LINE
8
Black
10
245.986
20
-146.36
11
245.983
21
-146.367
0
LINE
8
Black
10
245.983
20
-146.367
11
245.983
21
-146.367
0
LINE
8
Black
10
245.983
20
-146.367
11
245.809
21
-146.668
0
LINE
8
Black
10
245.809
20
-146.668
11
245.809
21
-146.668
0
LINE
8
Black
10
245.809
20
-146.668
11
245.798
21
-146.681
0
LINE
8
Black
10
245.798
20
-146.681
11
245.532
21
-146.904
0
LINE
8
Black
10
245.532
20
-146.904
11
245.532
21
-146.904
0
LINE
8
Black
10
245.532
20
-146.904
11
245.517
21
-146.913
0
LINE
8
Black
10
245.517
20
-146.913
11
245.191
21
-147.032
0
LINE
8
Black
10
245.191
20
-147.032
11
245.174
21
-147.035
0
LINE
8
Black
10
245.174
20
-147.035
11
244.826
21
-147.035
0
LINE
8
Black
10
244.826
20
-147.035
11
244.809
21
-147.032
0
LINE
8
Black
10
244.835
20
-130.065
11
244.525
21
-130.178
0
LINE
8
Black
10
244.525
20
-130.178
11
244.273
21
-130.39
0
LINE
8
Black
10
244.273
20
-130.39
11
244.108
21
-130.675
0
LINE
8
Black
10
244.108
20
-130.675
11
244.05
21
-131.004
0
LINE
8
Black
10
244.05
20
-131.004
11
244.05
21
-145.996
0
LINE
8
Black
10
244.05
20
-145.996
11
244.108
21
-146.325
0
LINE
8
Black
10
244.108
20
-146.325
11
244.273
21
-146.61
0
LINE
8
Black
10
244.273
20
-146.61
11
244.525
21
-146.822
0
LINE
8
Black
10
244.525
20
-146.822
11
244.835
21
-146.935
0
LINE
8
Black
10
244.835
20
-146.935
11
245.165
21
-146.935
0
LINE
8
Black
10
245.165
20
-146.935
11
245.475
21
-146.822
0
LINE
8
Black
10
245.475
20
-146.822
11
245.727
21
-146.61
0
LINE
8
Black
10
245.727
20
-146.61
11
245.892
21
-146.325
0
LINE
8
Black
10
245.892
20
-146.325
11
245.95
21
-145.996
0
LINE
8
Black
10
245.95
20
-145.996
11
245.95
21
-131.004
0
LINE
8
Black
10
245.95
20
-131.004
11
245.892
21
-130.675
0
LINE
8
Black
10
245.892
20
-130.675
11
245.727
21
-130.39
0
LINE
8
Black
10
245.727
20
-130.39
11
245.475
21
-130.178
0
LINE
8
Black
10
245.475
20
-130.178
11
245.165
21
-130.065
0
LINE
8
Black
10
245.165
20
-130.065
11
244.835
21
-130.065
  0
ENDSEC
  0
EOF
