  0
SECTION
  2
HEADER
  9
$ANGBASE
  50
0.0
  9
$ANGDIR
  70
  1
  9
$MEASUREMENT
  70
0
  0
ENDSEC
  0
SECTION
  2
TABLES
  0
TABLE
  2
LTYPE
  70
1
  0
LTYPE
  2
CONTINUOUS
  70
0
  3
Solid line
  72
65
  73
0
  40
0.0
  0
ENDTAB
  0
TABLE
  2
STYLE
  70
4
  0
STYLE
  2
KICAD
  70
0
  40
0
  41
1
  42
1
  50
0
  71
0
  3
isocp.shx
  0
STYLE
  2
KICADB
  70
0
  40
0
  41
1
  42
1
  50
0
  71
0
  3
isocp.shx
  0
STYLE
  2
KICADI
  70
0
  40
0
  41
1
  42
1
  50
15
  71
0
  3
isocp.shx
  0
STYLE
  2
KICADBI
  70
0
  40
0
  41
1
  42
1
  50
15
  71
0
  3
isocp.shx
  0
ENDTAB
  0
TABLE
  2
LAYER
  70
30
  0
LAYER
  2
BLACK
  70
0
  62
7
  6
CONTINUOUS
  0
LAYER
  2
GRAY1
  70
0
  62
251
  6
CONTINUOUS
  0
LAYER
  2
GRAY2
  70
0
  62
8
  6
CONTINUOUS
  0
LAYER
  2
GRAY3
  70
0
  62
9
  6
CONTINUOUS
  0
LAYER
  2
WHITE
  70
0
  62
7
  6
CONTINUOUS
  0
LAYER
  2
LYELLOW
  70
0
  62
51
  6
CONTINUOUS
  0
LAYER
  2
BLUE1
  70
0
  62
178
  6
CONTINUOUS
  0
LAYER
  2
GREEN1
  70
0
  62
98
  6
CONTINUOUS
  0
LAYER
  2
CYAN1
  70
0
  62
138
  6
CONTINUOUS
  0
LAYER
  2
RED1
  70
0
  62
18
  6
CONTINUOUS
  0
LAYER
  2
MAGENTA1
  70
0
  62
228
  6
CONTINUOUS
  0
LAYER
  2
BROWN1
  70
0
  62
58
  6
CONTINUOUS
  0
LAYER
  2
BLUE2
  70
0
  62
5
  6
CONTINUOUS
  0
LAYER
  2
GREEN2
  70
0
  62
3
  6
CONTINUOUS
  0
LAYER
  2
CYAN2
  70
0
  62
4
  6
CONTINUOUS
  0
LAYER
  2
RED2
  70
0
  62
1
  6
CONTINUOUS
  0
LAYER
  2
MAGENTA2
  70
0
  62
6
  6
CONTINUOUS
  0
LAYER
  2
BROWN2
  70
0
  62
54
  6
CONTINUOUS
  0
LAYER
  2
BLUE3
  70
0
  62
171
  6
CONTINUOUS
  0
LAYER
  2
GREEN3
  70
0
  62
91
  6
CONTINUOUS
  0
LAYER
  2
CYAN3
  70
0
  62
131
  6
CONTINUOUS
  0
LAYER
  2
RED3
  70
0
  62
11
  6
CONTINUOUS
  0
LAYER
  2
MAGENTA3
  70
0
  62
221
  6
CONTINUOUS
  0
LAYER
  2
YELLOW3
  70
0
  62
2
  6
CONTINUOUS
  0
LAYER
  2
BLUE4
  70
0
  62
5
  6
CONTINUOUS
  0
LAYER
  2
GREEN4
  70
0
  62
3
  6
CONTINUOUS
  0
LAYER
  2
CYAN4
  70
0
  62
4
  6
CONTINUOUS
  0
LAYER
  2
RED4
  70
0
  62
1
  6
CONTINUOUS
  0
LAYER
  2
MAGENTA4
  70
0
  62
6
  6
CONTINUOUS
  0
LAYER
  2
YELLOW4
  70
0
  62
2
  6
CONTINUOUS
  0
ENDTAB
  0
ENDSEC
  0
SECTION
  2
ENTITIES
0
LINE
8
Black
10
263.626
20
-148.284
11
262.887
21
-148.903
0
LINE
8
Black
10
262.887
20
-148.903
11
261.982
21
-149.233
0
LINE
8
Black
10
261.982
20
-149.233
11
261.018
21
-149.233
0
LINE
8
Black
10
261.018
20
-149.233
11
260.113
21
-148.903
0
LINE
8
Black
10
260.113
20
-148.903
11
259.374
21
-148.284
0
LINE
8
Black
10
259.374
20
-148.284
11
258.892
21
-147.449
0
LINE
8
Black
10
258.892
20
-147.449
11
258.725
21
-146.5
0
LINE
8
Black
10
258.725
20
-146.5
11
258.892
21
-145.551
0
LINE
8
Black
10
258.892
20
-145.551
11
259.374
21
-144.716
0
LINE
8
Black
10
259.374
20
-144.716
11
260.113
21
-144.097
0
LINE
8
Black
10
260.113
20
-144.097
11
261.018
21
-143.767
0
LINE
8
Black
10
261.018
20
-143.767
11
261.982
21
-143.767
0
LINE
8
Black
10
261.982
20
-143.767
11
262.887
21
-144.097
0
LINE
8
Black
10
262.887
20
-144.097
11
263.626
21
-144.716
0
LINE
8
Black
10
263.626
20
-144.716
11
264.108
21
-145.551
0
LINE
8
Black
10
264.108
20
-145.551
11
264.275
21
-146.5
0
LINE
8
Black
10
264.275
20
-146.5
11
264.108
21
-147.449
0
LINE
8
Black
10
264.108
20
-147.449
11
263.626
21
-148.284
0
LINE
8
Black
10
263.511
20
-144.813
11
262.812
21
-144.227
0
LINE
8
Black
10
262.812
20
-144.227
11
261.956
21
-143.915
0
LINE
8
Black
10
261.956
20
-143.915
11
261.044
21
-143.915
0
LINE
8
Black
10
261.044
20
-143.915
11
260.188
21
-144.227
0
LINE
8
Black
10
260.188
20
-144.227
11
259.489
21
-144.813
0
LINE
8
Black
10
259.489
20
-144.813
11
259.033
21
-145.602
0
LINE
8
Black
10
259.033
20
-145.602
11
258.875
21
-146.5
0
LINE
8
Black
10
258.875
20
-146.5
11
259.033
21
-147.398
0
LINE
8
Black
10
259.033
20
-147.398
11
259.489
21
-148.187
0
LINE
8
Black
10
259.489
20
-148.187
11
260.188
21
-148.773
0
LINE
8
Black
10
260.188
20
-148.773
11
261.044
21
-149.085
0
LINE
8
Black
10
261.044
20
-149.085
11
261.956
21
-149.085
0
LINE
8
Black
10
261.956
20
-149.085
11
262.812
21
-148.773
0
LINE
8
Black
10
262.812
20
-148.773
11
263.511
21
-148.187
0
LINE
8
Black
10
263.511
20
-148.187
11
263.967
21
-147.398
0
LINE
8
Black
10
263.967
20
-147.398
11
264.125
21
-146.5
0
LINE
8
Black
10
264.125
20
-146.5
11
263.967
21
-145.602
0
LINE
8
Black
10
263.967
20
-145.602
11
263.511
21
-144.813
0
LINE
8
Black
10
205.626
20
-148.284
11
204.887
21
-148.903
0
LINE
8
Black
10
204.887
20
-148.903
11
203.982
21
-149.233
0
LINE
8
Black
10
203.982
20
-149.233
11
203.018
21
-149.233
0
LINE
8
Black
10
203.018
20
-149.233
11
202.112
21
-148.903
0
LINE
8
Black
10
202.112
20
-148.903
11
201.374
21
-148.284
0
LINE
8
Black
10
201.374
20
-148.284
11
200.892
21
-147.449
0
LINE
8
Black
10
200.892
20
-147.449
11
200.725
21
-146.5
0
LINE
8
Black
10
200.725
20
-146.5
11
200.892
21
-145.551
0
LINE
8
Black
10
200.892
20
-145.551
11
201.374
21
-144.716
0
LINE
8
Black
10
201.374
20
-144.716
11
202.112
21
-144.097
0
LINE
8
Black
10
202.112
20
-144.097
11
203.018
21
-143.767
0
LINE
8
Black
10
203.018
20
-143.767
11
203.982
21
-143.767
0
LINE
8
Black
10
203.982
20
-143.767
11
204.887
21
-144.097
0
LINE
8
Black
10
204.887
20
-144.097
11
205.626
21
-144.716
0
LINE
8
Black
10
205.626
20
-144.716
11
206.108
21
-145.551
0
LINE
8
Black
10
206.108
20
-145.551
11
206.275
21
-146.5
0
LINE
8
Black
10
206.275
20
-146.5
11
206.108
21
-147.449
0
LINE
8
Black
10
206.108
20
-147.449
11
205.626
21
-148.284
0
LINE
8
Black
10
205.511
20
-144.813
11
204.812
21
-144.227
0
LINE
8
Black
10
204.812
20
-144.227
11
203.956
21
-143.915
0
LINE
8
Black
10
203.956
20
-143.915
11
203.044
21
-143.915
0
LINE
8
Black
10
203.044
20
-143.915
11
202.188
21
-144.227
0
LINE
8
Black
10
202.188
20
-144.227
11
201.489
21
-144.813
0
LINE
8
Black
10
201.489
20
-144.813
11
201.033
21
-145.602
0
LINE
8
Black
10
201.033
20
-145.602
11
200.875
21
-146.5
0
LINE
8
Black
10
200.875
20
-146.5
11
201.033
21
-147.398
0
LINE
8
Black
10
201.033
20
-147.398
11
201.489
21
-148.187
0
LINE
8
Black
10
201.489
20
-148.187
11
202.188
21
-148.773
0
LINE
8
Black
10
202.188
20
-148.773
11
203.044
21
-149.085
0
LINE
8
Black
10
203.044
20
-149.085
11
203.956
21
-149.085
0
LINE
8
Black
10
203.956
20
-149.085
11
204.812
21
-148.773
0
LINE
8
Black
10
204.812
20
-148.773
11
205.511
21
-148.187
0
LINE
8
Black
10
205.511
20
-148.187
11
205.967
21
-147.398
0
LINE
8
Black
10
205.967
20
-147.398
11
206.125
21
-146.5
0
LINE
8
Black
10
206.125
20
-146.5
11
205.967
21
-145.602
0
LINE
8
Black
10
205.967
20
-145.602
11
205.511
21
-144.813
0
LINE
8
Black
10
263.626
20
-99.2837
11
262.887
21
-99.9032
0
LINE
8
Black
10
262.887
20
-99.9032
11
261.982
21
-100.233
0
LINE
8
Black
10
261.982
20
-100.233
11
261.018
21
-100.233
0
LINE
8
Black
10
261.018
20
-100.233
11
260.113
21
-99.9032
0
LINE
8
Black
10
260.113
20
-99.9032
11
259.374
21
-99.2837
0
LINE
8
Black
10
259.374
20
-99.2837
11
258.892
21
-98.4491
0
LINE
8
Black
10
258.892
20
-98.4491
11
258.725
21
-97.5
0
LINE
8
Black
10
258.725
20
-97.5
11
258.892
21
-96.5509
0
LINE
8
Black
10
258.892
20
-96.5509
11
259.374
21
-95.7163
0
LINE
8
Black
10
259.374
20
-95.7163
11
260.113
21
-95.0968
0
LINE
8
Black
10
260.113
20
-95.0968
11
261.018
21
-94.7672
0
LINE
8
Black
10
261.018
20
-94.7672
11
261.982
21
-94.7672
0
LINE
8
Black
10
261.982
20
-94.7672
11
262.887
21
-95.0968
0
LINE
8
Black
10
262.887
20
-95.0968
11
263.626
21
-95.7163
0
LINE
8
Black
10
263.626
20
-95.7163
11
264.108
21
-96.5509
0
LINE
8
Black
10
264.108
20
-96.5509
11
264.275
21
-97.5
0
LINE
8
Black
10
264.275
20
-97.5
11
264.108
21
-98.4491
0
LINE
8
Black
10
264.108
20
-98.4491
11
263.626
21
-99.2837
0
LINE
8
Black
10
263.511
20
-95.8127
11
262.812
21
-95.2267
0
LINE
8
Black
10
262.812
20
-95.2267
11
261.956
21
-94.9149
0
LINE
8
Black
10
261.956
20
-94.9149
11
261.044
21
-94.9149
0
LINE
8
Black
10
261.044
20
-94.9149
11
260.188
21
-95.2267
0
LINE
8
Black
10
260.188
20
-95.2267
11
259.489
21
-95.8127
0
LINE
8
Black
10
259.489
20
-95.8127
11
259.033
21
-96.6022
0
LINE
8
Black
10
259.033
20
-96.6022
11
258.875
21
-97.5
0
LINE
8
Black
10
258.875
20
-97.5
11
259.033
21
-98.3978
0
LINE
8
Black
10
259.033
20
-98.3978
11
259.489
21
-99.1873
0
LINE
8
Black
10
259.489
20
-99.1873
11
260.188
21
-99.7733
0
LINE
8
Black
10
260.188
20
-99.7733
11
261.044
21
-100.085
0
LINE
8
Black
10
261.044
20
-100.085
11
261.956
21
-100.085
0
LINE
8
Black
10
261.956
20
-100.085
11
262.812
21
-99.7733
0
LINE
8
Black
10
262.812
20
-99.7733
11
263.511
21
-99.1873
0
LINE
8
Black
10
263.511
20
-99.1873
11
263.967
21
-98.3978
0
LINE
8
Black
10
263.967
20
-98.3978
11
264.125
21
-97.5
0
LINE
8
Black
10
264.125
20
-97.5
11
263.967
21
-96.6022
0
LINE
8
Black
10
263.967
20
-96.6022
11
263.511
21
-95.8127
0
LINE
8
Black
10
205.626
20
-99.2837
11
204.887
21
-99.9032
0
LINE
8
Black
10
204.887
20
-99.9032
11
203.982
21
-100.233
0
LINE
8
Black
10
203.982
20
-100.233
11
203.018
21
-100.233
0
LINE
8
Black
10
203.018
20
-100.233
11
202.112
21
-99.9032
0
LINE
8
Black
10
202.112
20
-99.9032
11
201.374
21
-99.2837
0
LINE
8
Black
10
201.374
20
-99.2837
11
200.892
21
-98.4491
0
LINE
8
Black
10
200.892
20
-98.4491
11
200.725
21
-97.5
0
LINE
8
Black
10
200.725
20
-97.5
11
200.892
21
-96.5509
0
LINE
8
Black
10
200.892
20
-96.5509
11
201.374
21
-95.7163
0
LINE
8
Black
10
201.374
20
-95.7163
11
202.112
21
-95.0968
0
LINE
8
Black
10
202.112
20
-95.0968
11
203.018
21
-94.7672
0
LINE
8
Black
10
203.018
20
-94.7672
11
203.982
21
-94.7672
0
LINE
8
Black
10
203.982
20
-94.7672
11
204.887
21
-95.0968
0
LINE
8
Black
10
204.887
20
-95.0968
11
205.626
21
-95.7163
0
LINE
8
Black
10
205.626
20
-95.7163
11
206.108
21
-96.5509
0
LINE
8
Black
10
206.108
20
-96.5509
11
206.275
21
-97.5
0
LINE
8
Black
10
206.275
20
-97.5
11
206.108
21
-98.4491
0
LINE
8
Black
10
206.108
20
-98.4491
11
205.626
21
-99.2837
0
LINE
8
Black
10
205.511
20
-95.8127
11
204.812
21
-95.2267
0
LINE
8
Black
10
204.812
20
-95.2267
11
203.956
21
-94.9149
0
LINE
8
Black
10
203.956
20
-94.9149
11
203.044
21
-94.9149
0
LINE
8
Black
10
203.044
20
-94.9149
11
202.188
21
-95.2267
0
LINE
8
Black
10
202.188
20
-95.2267
11
201.489
21
-95.8127
0
LINE
8
Black
10
201.489
20
-95.8127
11
201.033
21
-96.6022
0
LINE
8
Black
10
201.033
20
-96.6022
11
200.875
21
-97.5
0
LINE
8
Black
10
200.875
20
-97.5
11
201.033
21
-98.3978
0
LINE
8
Black
10
201.033
20
-98.3978
11
201.489
21
-99.1873
0
LINE
8
Black
10
201.489
20
-99.1873
11
202.188
21
-99.7733
0
LINE
8
Black
10
202.188
20
-99.7733
11
203.044
21
-100.085
0
LINE
8
Black
10
203.044
20
-100.085
11
203.956
21
-100.085
0
LINE
8
Black
10
203.956
20
-100.085
11
204.812
21
-99.7733
0
LINE
8
Black
10
204.812
20
-99.7733
11
205.511
21
-99.1873
0
LINE
8
Black
10
205.511
20
-99.1873
11
205.967
21
-98.3978
0
LINE
8
Black
10
205.967
20
-98.3978
11
206.125
21
-97.5
0
LINE
8
Black
10
206.125
20
-97.5
11
205.967
21
-96.6022
0
LINE
8
Black
10
205.967
20
-96.6022
11
205.511
21
-95.8127
  0
ENDSEC
  0
EOF
