  0
SECTION
  2
HEADER
  9
$ANGBASE
  50
0.0
  9
$ANGDIR
  70
  1
  9
$MEASUREMENT
  70
0
  0
ENDSEC
  0
SECTION
  2
TABLES
  0
TABLE
  2
LTYPE
  70
1
  0
LTYPE
  2
CONTINUOUS
  70
0
  3
Solid line
  72
65
  73
0
  40
0.0
  0
ENDTAB
  0
TABLE
  2
STYLE
  70
4
  0
STYLE
  2
KICAD
  70
0
  40
0
  41
1
  42
1
  50
0
  71
0
  3
isocp.shx
  0
STYLE
  2
KICADB
  70
0
  40
0
  41
1
  42
1
  50
0
  71
0
  3
isocp.shx
  0
STYLE
  2
KICADI
  70
0
  40
0
  41
1
  42
1
  50
15
  71
0
  3
isocp.shx
  0
STYLE
  2
KICADBI
  70
0
  40
0
  41
1
  42
1
  50
15
  71
0
  3
isocp.shx
  0
ENDTAB
  0
TABLE
  2
LAYER
  70
30
  0
LAYER
  2
BLACK
  70
0
  62
7
  6
CONTINUOUS
  0
LAYER
  2
GRAY1
  70
0
  62
251
  6
CONTINUOUS
  0
LAYER
  2
GRAY2
  70
0
  62
8
  6
CONTINUOUS
  0
LAYER
  2
GRAY3
  70
0
  62
9
  6
CONTINUOUS
  0
LAYER
  2
WHITE
  70
0
  62
7
  6
CONTINUOUS
  0
LAYER
  2
LYELLOW
  70
0
  62
51
  6
CONTINUOUS
  0
LAYER
  2
BLUE1
  70
0
  62
178
  6
CONTINUOUS
  0
LAYER
  2
GREEN1
  70
0
  62
98
  6
CONTINUOUS
  0
LAYER
  2
CYAN1
  70
0
  62
138
  6
CONTINUOUS
  0
LAYER
  2
RED1
  70
0
  62
18
  6
CONTINUOUS
  0
LAYER
  2
MAGENTA1
  70
0
  62
228
  6
CONTINUOUS
  0
LAYER
  2
BROWN1
  70
0
  62
58
  6
CONTINUOUS
  0
LAYER
  2
BLUE2
  70
0
  62
5
  6
CONTINUOUS
  0
LAYER
  2
GREEN2
  70
0
  62
3
  6
CONTINUOUS
  0
LAYER
  2
CYAN2
  70
0
  62
4
  6
CONTINUOUS
  0
LAYER
  2
RED2
  70
0
  62
1
  6
CONTINUOUS
  0
LAYER
  2
MAGENTA2
  70
0
  62
6
  6
CONTINUOUS
  0
LAYER
  2
BROWN2
  70
0
  62
54
  6
CONTINUOUS
  0
LAYER
  2
BLUE3
  70
0
  62
171
  6
CONTINUOUS
  0
LAYER
  2
GREEN3
  70
0
  62
91
  6
CONTINUOUS
  0
LAYER
  2
CYAN3
  70
0
  62
131
  6
CONTINUOUS
  0
LAYER
  2
RED3
  70
0
  62
11
  6
CONTINUOUS
  0
LAYER
  2
MAGENTA3
  70
0
  62
221
  6
CONTINUOUS
  0
LAYER
  2
YELLOW3
  70
0
  62
2
  6
CONTINUOUS
  0
LAYER
  2
BLUE4
  70
0
  62
5
  6
CONTINUOUS
  0
LAYER
  2
GREEN4
  70
0
  62
3
  6
CONTINUOUS
  0
LAYER
  2
CYAN4
  70
0
  62
4
  6
CONTINUOUS
  0
LAYER
  2
RED4
  70
0
  62
1
  6
CONTINUOUS
  0
LAYER
  2
MAGENTA4
  70
0
  62
6
  6
CONTINUOUS
  0
LAYER
  2
YELLOW4
  70
0
  62
2
  6
CONTINUOUS
  0
ENDTAB
  0
ENDSEC
  0
SECTION
  2
ENTITIES
0
LINE
8
Black
10
206.362
20
-100.357
11
206.371
21
-100.357
0
LINE
8
Black
10
206.371
20
-100.357
11
206.375
21
-100.358
0
LINE
8
Black
10
206.375
20
-100.358
11
206.379
21
-100.358
0
LINE
8
Black
10
206.379
20
-100.358
11
206.387
21
-100.362
0
LINE
8
Black
10
206.387
20
-100.362
11
206.395
21
-100.365
0
LINE
8
Black
10
206.395
20
-100.365
11
206.399
21
-100.368
0
LINE
8
Black
10
206.399
20
-100.368
11
206.402
21
-100.37
0
LINE
8
Black
10
206.402
20
-100.37
11
206.409
21
-100.376
0
LINE
8
Black
10
206.409
20
-100.376
11
206.415
21
-100.382
0
LINE
8
Black
10
206.415
20
-100.382
11
206.418
21
-100.386
0
LINE
8
Black
10
206.418
20
-100.386
11
206.42
21
-100.389
0
LINE
8
Black
10
206.42
20
-100.389
11
206.512
21
-100.525
0
LINE
8
Black
10
206.512
20
-100.525
11
206.593
21
-100.607
0
LINE
8
Black
10
206.593
20
-100.607
11
206.677
21
-100.649
0
LINE
8
Black
10
206.677
20
-100.649
11
206.698
21
-100.665
0
LINE
8
Black
10
206.698
20
-100.665
11
206.713
21
-100.686
0
LINE
8
Black
10
206.713
20
-100.686
11
206.719
21
-100.712
0
LINE
8
Black
10
206.719
20
-100.712
11
206.716
21
-100.737
0
LINE
8
Black
10
206.716
20
-100.737
11
206.704
21
-100.761
0
LINE
8
Black
10
206.704
20
-100.761
11
206.685
21
-100.779
0
LINE
8
Black
10
206.685
20
-100.779
11
206.661
21
-100.789
0
LINE
8
Black
10
206.661
20
-100.789
11
206.635
21
-100.791
0
LINE
8
Black
10
206.635
20
-100.791
11
206.61
21
-100.783
0
LINE
8
Black
10
206.61
20
-100.783
11
206.515
21
-100.736
0
LINE
8
Black
10
206.515
20
-100.736
11
206.505
21
-100.728
0
LINE
8
Black
10
206.505
20
-100.728
11
206.495
21
-100.722
0
LINE
8
Black
10
206.495
20
-100.722
11
206.433
21
-100.659
0
LINE
8
Black
10
206.433
20
-100.659
11
206.433
21
-101.355
0
LINE
8
Black
10
206.433
20
-101.355
11
206.644
21
-101.355
0
LINE
8
Black
10
206.644
20
-101.355
11
206.669
21
-101.36
0
LINE
8
Black
10
206.669
20
-101.36
11
206.692
21
-101.373
0
LINE
8
Black
10
206.692
20
-101.373
11
206.709
21
-101.393
0
LINE
8
Black
10
206.709
20
-101.393
11
206.718
21
-101.417
0
LINE
8
Black
10
206.718
20
-101.417
11
206.718
21
-101.443
0
LINE
8
Black
10
206.718
20
-101.443
11
206.709
21
-101.468
0
LINE
8
Black
10
206.709
20
-101.468
11
206.692
21
-101.488
0
LINE
8
Black
10
206.692
20
-101.488
11
206.669
21
-101.501
0
LINE
8
Black
10
206.669
20
-101.501
11
206.644
21
-101.505
0
LINE
8
Black
10
206.644
20
-101.505
11
206.072
21
-101.505
0
LINE
8
Black
10
206.072
20
-101.505
11
206.047
21
-101.501
0
LINE
8
Black
10
206.047
20
-101.501
11
206.024
21
-101.488
0
LINE
8
Black
10
206.024
20
-101.488
11
206.007
21
-101.468
0
LINE
8
Black
10
206.007
20
-101.468
11
205.998
21
-101.443
0
LINE
8
Black
10
205.998
20
-101.443
11
205.998
21
-101.417
0
LINE
8
Black
10
205.998
20
-101.417
11
206.007
21
-101.393
0
LINE
8
Black
10
206.007
20
-101.393
11
206.024
21
-101.373
0
LINE
8
Black
10
206.024
20
-101.373
11
206.047
21
-101.36
0
LINE
8
Black
10
206.047
20
-101.36
11
206.072
21
-101.355
0
LINE
8
Black
10
206.072
20
-101.355
11
206.283
21
-101.355
0
LINE
8
Black
10
206.283
20
-101.355
11
206.283
21
-100.43
0
LINE
8
Black
10
206.283
20
-100.43
11
206.284
21
-100.426
0
LINE
8
Black
10
206.284
20
-100.426
11
206.283
21
-100.422
0
LINE
8
Black
10
206.283
20
-100.422
11
206.286
21
-100.414
0
LINE
8
Black
10
206.286
20
-100.414
11
206.288
21
-100.405
0
LINE
8
Black
10
206.288
20
-100.405
11
206.29
21
-100.401
0
LINE
8
Black
10
206.29
20
-100.401
11
206.291
21
-100.397
0
LINE
8
Black
10
206.291
20
-100.397
11
206.296
21
-100.39
0
LINE
8
Black
10
206.296
20
-100.39
11
206.301
21
-100.382
0
LINE
8
Black
10
206.301
20
-100.382
11
206.304
21
-100.38
0
LINE
8
Black
10
206.304
20
-100.38
11
206.306
21
-100.376
0
LINE
8
Black
10
206.306
20
-100.376
11
206.314
21
-100.371
0
LINE
8
Black
10
206.314
20
-100.371
11
206.32
21
-100.365
0
LINE
8
Black
10
206.32
20
-100.365
11
206.324
21
-100.364
0
LINE
8
Black
10
206.324
20
-100.364
11
206.328
21
-100.362
0
LINE
8
Black
10
206.328
20
-100.362
11
206.337
21
-100.36
0
LINE
8
Black
10
206.337
20
-100.36
11
206.345
21
-100.357
0
LINE
8
Black
10
206.345
20
-100.357
11
206.349
21
-100.357
0
LINE
8
Black
10
206.349
20
-100.357
11
206.353
21
-100.356
0
LINE
8
Black
10
206.353
20
-100.356
11
206.362
21
-100.357
0
LINE
8
Black
10
207.603
20
-100.357
11
207.609
21
-100.357
0
LINE
8
Black
10
207.609
20
-100.357
11
207.615
21
-100.359
0
LINE
8
Black
10
207.615
20
-100.359
11
207.622
21
-100.36
0
LINE
8
Black
10
207.622
20
-100.36
11
207.627
21
-100.363
0
LINE
8
Black
10
207.627
20
-100.363
11
207.634
21
-100.365
0
LINE
8
Black
10
207.634
20
-100.365
11
207.639
21
-100.37
0
LINE
8
Black
10
207.639
20
-100.37
11
207.644
21
-100.373
0
LINE
8
Black
10
207.644
20
-100.373
11
207.649
21
-100.378
0
LINE
8
Black
10
207.649
20
-100.378
11
207.654
21
-100.382
0
LINE
8
Black
10
207.654
20
-100.382
11
207.657
21
-100.388
0
LINE
8
Black
10
207.657
20
-100.388
11
207.661
21
-100.393
0
LINE
8
Black
10
207.661
20
-100.393
11
207.663
21
-100.399
0
LINE
8
Black
10
207.663
20
-100.399
11
207.667
21
-100.405
0
LINE
8
Black
10
207.667
20
-100.405
11
207.668
21
-100.411
0
LINE
8
Black
10
207.668
20
-100.411
11
207.67
21
-100.417
0
LINE
8
Black
10
207.67
20
-100.417
11
207.67
21
-100.424
0
LINE
8
Black
10
207.67
20
-100.424
11
207.671
21
-100.43
0
LINE
8
Black
10
207.671
20
-100.43
11
207.671
21
-101.43
0
LINE
8
Black
10
207.671
20
-101.43
11
207.667
21
-101.456
0
LINE
8
Black
10
207.667
20
-101.456
11
207.654
21
-101.479
0
LINE
8
Black
10
207.654
20
-101.479
11
207.634
21
-101.495
0
LINE
8
Black
10
207.634
20
-101.495
11
207.609
21
-101.504
0
LINE
8
Black
10
207.609
20
-101.504
11
207.583
21
-101.504
0
LINE
8
Black
10
207.583
20
-101.504
11
207.559
21
-101.495
0
LINE
8
Black
10
207.559
20
-101.495
11
207.539
21
-101.479
0
LINE
8
Black
10
207.539
20
-101.479
11
207.526
21
-101.456
0
LINE
8
Black
10
207.526
20
-101.456
11
207.521
21
-101.43
0
LINE
8
Black
10
207.521
20
-101.43
11
207.521
21
-101.029
0
LINE
8
Black
10
207.521
20
-101.029
11
207.215
21
-101.029
0
LINE
8
Black
10
207.215
20
-101.029
11
207.211
21
-101.028
0
LINE
8
Black
10
207.211
20
-101.028
11
207.207
21
-101.029
0
LINE
8
Black
10
207.207
20
-101.029
11
207.198
21
-101.026
0
LINE
8
Black
10
207.198
20
-101.026
11
207.189
21
-101.025
0
LINE
8
Black
10
207.189
20
-101.025
11
207.186
21
-101.023
0
LINE
8
Black
10
207.186
20
-101.023
11
207.182
21
-101.021
0
LINE
8
Black
10
207.182
20
-101.021
11
207.086
21
-100.974
0
LINE
8
Black
10
207.086
20
-100.974
11
207.077
21
-100.966
0
LINE
8
Black
10
207.077
20
-100.966
11
207.067
21
-100.96
0
LINE
8
Black
10
207.067
20
-100.96
11
207.019
21
-100.912
0
LINE
8
Black
10
207.019
20
-100.912
11
207.012
21
-100.902
0
LINE
8
Black
10
207.012
20
-100.902
11
207.005
21
-100.892
0
LINE
8
Black
10
207.005
20
-100.892
11
206.958
21
-100.797
0
LINE
8
Black
10
206.958
20
-100.797
11
206.956
21
-100.793
0
LINE
8
Black
10
206.956
20
-100.793
11
206.954
21
-100.789
0
LINE
8
Black
10
206.954
20
-100.789
11
206.953
21
-100.781
0
LINE
8
Black
10
206.953
20
-100.781
11
206.95
21
-100.772
0
LINE
8
Black
10
206.95
20
-100.772
11
206.95
21
-100.768
0
LINE
8
Black
10
206.95
20
-100.768
11
206.95
21
-100.764
0
LINE
8
Black
10
206.95
20
-100.764
11
206.95
21
-100.621
0
LINE
8
Black
10
206.95
20
-100.621
11
206.95
21
-100.617
0
LINE
8
Black
10
206.95
20
-100.617
11
206.95
21
-100.612
0
LINE
8
Black
10
206.95
20
-100.612
11
206.953
21
-100.604
0
LINE
8
Black
10
206.953
20
-100.604
11
206.954
21
-100.595
0
LINE
8
Black
10
206.954
20
-100.595
11
206.956
21
-100.591
0
LINE
8
Black
10
206.956
20
-100.591
11
206.958
21
-100.587
0
LINE
8
Black
10
206.958
20
-100.587
11
207.005
21
-100.492
0
LINE
8
Black
10
207.005
20
-100.492
11
207.012
21
-100.482
0
LINE
8
Black
10
207.012
20
-100.482
11
207.019
21
-100.473
0
LINE
8
Black
10
207.019
20
-100.473
11
207.067
21
-100.425
0
LINE
8
Black
10
207.067
20
-100.425
11
207.077
21
-100.418
0
LINE
8
Black
10
207.077
20
-100.418
11
207.086
21
-100.411
0
LINE
8
Black
10
207.086
20
-100.411
11
207.182
21
-100.363
0
LINE
8
Black
10
207.182
20
-100.363
11
207.186
21
-100.362
0
LINE
8
Black
10
207.186
20
-100.362
11
207.189
21
-100.36
0
LINE
8
Black
10
207.189
20
-100.36
11
207.198
21
-100.358
0
LINE
8
Black
10
207.198
20
-100.358
11
207.207
21
-100.356
0
LINE
8
Black
10
207.207
20
-100.356
11
207.211
21
-100.356
0
LINE
8
Black
10
207.211
20
-100.356
11
207.215
21
-100.355
0
LINE
8
Black
10
207.215
20
-100.355
11
207.596
21
-100.355
0
LINE
8
Black
10
207.596
20
-100.355
11
207.603
21
-100.357
0
LINE
8
Black
10
207.233
20
-100.505
11
207.164
21
-100.54
0
LINE
8
Black
10
207.164
20
-100.54
11
207.134
21
-100.57
0
LINE
8
Black
10
207.134
20
-100.57
11
207.1
21
-100.639
0
LINE
8
Black
10
207.1
20
-100.639
11
207.1
21
-100.746
0
LINE
8
Black
10
207.1
20
-100.746
11
207.134
21
-100.815
0
LINE
8
Black
10
207.134
20
-100.815
11
207.164
21
-100.845
0
LINE
8
Black
10
207.164
20
-100.845
11
207.233
21
-100.879
0
LINE
8
Black
10
207.233
20
-100.879
11
207.521
21
-100.879
0
LINE
8
Black
10
207.521
20
-100.879
11
207.521
21
-100.505
0
LINE
8
Black
10
207.521
20
-100.505
11
207.233
21
-100.505
0
LINE
8
Black
10
207.07
20
-98.718
11
207.086
21
-98.7314
0
LINE
8
Black
10
207.086
20
-98.7314
11
207.096
21
-98.7495
0
LINE
8
Black
10
207.096
20
-98.7495
11
207.1
21
-98.77
0
LINE
8
Black
10
207.1
20
-98.77
11
207.1
21
-100.04
0
LINE
8
Black
10
207.1
20
-100.04
11
208.37
21
-100.04
0
LINE
8
Black
10
208.37
20
-100.04
11
208.391
21
-100.044
0
LINE
8
Black
10
208.391
20
-100.044
11
208.409
21
-100.054
0
LINE
8
Black
10
208.409
20
-100.054
11
208.422
21
-100.07
0
LINE
8
Black
10
208.422
20
-100.07
11
208.429
21
-100.09
0
LINE
8
Black
10
208.429
20
-100.09
11
208.429
21
-100.11
0
LINE
8
Black
10
208.429
20
-100.11
11
208.422
21
-100.13
0
LINE
8
Black
10
208.422
20
-100.13
11
208.409
21
-100.146
0
LINE
8
Black
10
208.409
20
-100.146
11
208.391
21
-100.156
0
LINE
8
Black
10
208.391
20
-100.156
11
208.37
21
-100.16
0
LINE
8
Black
10
208.37
20
-100.16
11
207.04
21
-100.16
0
LINE
8
Black
10
207.04
20
-100.16
11
207.035
21
-100.159
0
LINE
8
Black
10
207.035
20
-100.159
11
207.03
21
-100.159
0
LINE
8
Black
10
207.03
20
-100.159
11
207.025
21
-100.157
0
LINE
8
Black
10
207.025
20
-100.157
11
207.019
21
-100.156
0
LINE
8
Black
10
207.019
20
-100.156
11
207.015
21
-100.154
0
LINE
8
Black
10
207.015
20
-100.154
11
207.01
21
-100.152
0
LINE
8
Black
10
207.01
20
-100.152
11
207.006
21
-100.149
0
LINE
8
Black
10
207.006
20
-100.149
11
207.001
21
-100.146
0
LINE
8
Black
10
207.001
20
-100.146
11
206.998
21
-100.142
0
LINE
8
Black
10
206.998
20
-100.142
11
206.994
21
-100.139
0
LINE
8
Black
10
206.994
20
-100.139
11
206.991
21
-100.134
0
LINE
8
Black
10
206.991
20
-100.134
11
206.988
21
-100.13
0
LINE
8
Black
10
206.988
20
-100.13
11
206.986
21
-100.125
0
LINE
8
Black
10
206.986
20
-100.125
11
206.984
21
-100.121
0
LINE
8
Black
10
206.984
20
-100.121
11
206.983
21
-100.115
0
LINE
8
Black
10
206.983
20
-100.115
11
206.981
21
-100.11
0
LINE
8
Black
10
206.981
20
-100.11
11
206.981
21
-100.105
0
LINE
8
Black
10
206.981
20
-100.105
11
206.98
21
-100.1
0
LINE
8
Black
10
206.98
20
-100.1
11
206.98
21
-98.77
0
LINE
8
Black
10
206.98
20
-98.77
11
206.984
21
-98.7495
0
LINE
8
Black
10
206.984
20
-98.7495
11
206.994
21
-98.7314
0
LINE
8
Black
10
206.994
20
-98.7314
11
207.01
21
-98.718
0
LINE
8
Black
10
207.01
20
-98.718
11
207.03
21
-98.7109
0
LINE
8
Black
10
207.03
20
-98.7109
11
207.05
21
-98.7109
0
LINE
8
Black
10
207.05
20
-98.7109
11
207.07
21
-98.718
0
LINE
8
Black
10
257.965
20
-94.8409
11
257.97
21
-94.8409
0
LINE
8
Black
10
257.97
20
-94.8409
11
257.975
21
-94.8427
0
LINE
8
Black
10
257.975
20
-94.8427
11
257.981
21
-94.8436
0
LINE
8
Black
10
257.981
20
-94.8436
11
257.985
21
-94.8462
0
LINE
8
Black
10
257.985
20
-94.8462
11
257.99
21
-94.848
0
LINE
8
Black
10
257.99
20
-94.848
11
257.994
21
-94.8514
0
LINE
8
Black
10
257.994
20
-94.8514
11
257.999
21
-94.854
0
LINE
8
Black
10
257.999
20
-94.854
11
258.002
21
-94.8581
0
LINE
8
Black
10
258.002
20
-94.8581
11
258.006
21
-94.8614
0
LINE
8
Black
10
258.006
20
-94.8614
11
258.009
21
-94.866
0
LINE
8
Black
10
258.009
20
-94.866
11
258.012
21
-94.87
0
LINE
8
Black
10
258.012
20
-94.87
11
258.014
21
-94.8749
0
LINE
8
Black
10
258.014
20
-94.8749
11
258.016
21
-94.8795
0
LINE
8
Black
10
258.016
20
-94.8795
11
258.017
21
-94.8847
0
LINE
8
Black
10
258.017
20
-94.8847
11
258.019
21
-94.8896
0
LINE
8
Black
10
258.019
20
-94.8896
11
258.019
21
-94.8948
0
LINE
8
Black
10
258.019
20
-94.8948
11
258.02
21
-94.9
0
LINE
8
Black
10
258.02
20
-94.9
11
258.02
21
-100.1
0
LINE
8
Black
10
258.02
20
-100.1
11
258.019
21
-100.105
0
LINE
8
Black
10
258.019
20
-100.105
11
258.019
21
-100.11
0
LINE
8
Black
10
258.019
20
-100.11
11
258.017
21
-100.115
0
LINE
8
Black
10
258.017
20
-100.115
11
258.016
21
-100.121
0
LINE
8
Black
10
258.016
20
-100.121
11
258.014
21
-100.125
0
LINE
8
Black
10
258.014
20
-100.125
11
258.012
21
-100.13
0
LINE
8
Black
10
258.012
20
-100.13
11
258.009
21
-100.134
0
LINE
8
Black
10
258.009
20
-100.134
11
258.006
21
-100.139
0
LINE
8
Black
10
258.006
20
-100.139
11
258.002
21
-100.142
0
LINE
8
Black
10
258.002
20
-100.142
11
257.999
21
-100.146
0
LINE
8
Black
10
257.999
20
-100.146
11
257.994
21
-100.149
0
LINE
8
Black
10
257.994
20
-100.149
11
257.99
21
-100.152
0
LINE
8
Black
10
257.99
20
-100.152
11
257.985
21
-100.154
0
LINE
8
Black
10
257.985
20
-100.154
11
257.981
21
-100.156
0
LINE
8
Black
10
257.981
20
-100.156
11
257.975
21
-100.157
0
LINE
8
Black
10
257.975
20
-100.157
11
257.97
21
-100.159
0
LINE
8
Black
10
257.97
20
-100.159
11
257.965
21
-100.159
0
LINE
8
Black
10
257.965
20
-100.159
11
257.96
21
-100.16
0
LINE
8
Black
10
257.96
20
-100.16
11
209.64
21
-100.16
0
LINE
8
Black
10
209.64
20
-100.16
11
209.635
21
-100.159
0
LINE
8
Black
10
209.635
20
-100.159
11
209.63
21
-100.159
0
LINE
8
Black
10
209.63
20
-100.159
11
209.625
21
-100.157
0
LINE
8
Black
10
209.625
20
-100.157
11
209.619
21
-100.156
0
LINE
8
Black
10
209.619
20
-100.156
11
209.615
21
-100.154
0
LINE
8
Black
10
209.615
20
-100.154
11
209.61
21
-100.152
0
LINE
8
Black
10
209.61
20
-100.152
11
209.606
21
-100.149
0
LINE
8
Black
10
209.606
20
-100.149
11
209.601
21
-100.146
0
LINE
8
Black
10
209.601
20
-100.146
11
209.598
21
-100.142
0
LINE
8
Black
10
209.598
20
-100.142
11
209.594
21
-100.139
0
LINE
8
Black
10
209.594
20
-100.139
11
209.591
21
-100.134
0
LINE
8
Black
10
209.591
20
-100.134
11
209.588
21
-100.13
0
LINE
8
Black
10
209.588
20
-100.13
11
209.586
21
-100.125
0
LINE
8
Black
10
209.586
20
-100.125
11
209.584
21
-100.121
0
LINE
8
Black
10
209.584
20
-100.121
11
209.583
21
-100.115
0
LINE
8
Black
10
209.583
20
-100.115
11
209.581
21
-100.11
0
LINE
8
Black
10
209.581
20
-100.11
11
209.581
21
-100.105
0
LINE
8
Black
10
209.581
20
-100.105
11
209.58
21
-100.1
0
LINE
8
Black
10
209.58
20
-100.1
11
209.58
21
-97.56
0
LINE
8
Black
10
209.58
20
-97.56
11
207.04
21
-97.56
0
LINE
8
Black
10
207.04
20
-97.56
11
207.035
21
-97.5591
0
LINE
8
Black
10
207.035
20
-97.5591
11
207.03
21
-97.5591
0
LINE
8
Black
10
207.03
20
-97.5591
11
207.025
21
-97.5573
0
LINE
8
Black
10
207.025
20
-97.5573
11
207.019
21
-97.5564
0
LINE
8
Black
10
207.019
20
-97.5564
11
207.015
21
-97.5538
0
LINE
8
Black
10
207.015
20
-97.5538
11
207.01
21
-97.552
0
LINE
8
Black
10
207.01
20
-97.552
11
207.006
21
-97.5486
0
LINE
8
Black
10
207.006
20
-97.5486
11
207.001
21
-97.546
0
LINE
8
Black
10
207.001
20
-97.546
11
206.998
21
-97.5419
0
LINE
8
Black
10
206.998
20
-97.5419
11
206.994
21
-97.5386
0
LINE
8
Black
10
206.994
20
-97.5386
11
206.991
21
-97.534
0
LINE
8
Black
10
206.991
20
-97.534
11
206.988
21
-97.53
0
LINE
8
Black
10
206.988
20
-97.53
11
206.986
21
-97.5251
0
LINE
8
Black
10
206.986
20
-97.5251
11
206.984
21
-97.5205
0
LINE
8
Black
10
206.984
20
-97.5205
11
206.983
21
-97.5153
0
LINE
8
Black
10
206.983
20
-97.5153
11
206.981
21
-97.5104
0
LINE
8
Black
10
206.981
20
-97.5104
11
206.981
21
-97.5052
0
LINE
8
Black
10
206.981
20
-97.5052
11
206.98
21
-97.5
0
LINE
8
Black
10
206.98
20
-97.5
11
206.98
21
-94.9
0
LINE
8
Black
10
206.98
20
-94.9
11
206.981
21
-94.8948
0
LINE
8
Black
10
206.981
20
-94.8948
11
206.981
21
-94.8896
0
LINE
8
Black
10
206.981
20
-94.8896
11
206.983
21
-94.8847
0
LINE
8
Black
10
206.983
20
-94.8847
11
206.984
21
-94.8795
0
LINE
8
Black
10
206.984
20
-94.8795
11
206.986
21
-94.8749
0
LINE
8
Black
10
206.986
20
-94.8749
11
206.988
21
-94.87
0
LINE
8
Black
10
206.988
20
-94.87
11
206.991
21
-94.866
0
LINE
8
Black
10
206.991
20
-94.866
11
206.994
21
-94.8614
0
LINE
8
Black
10
206.994
20
-94.8614
11
206.998
21
-94.8581
0
LINE
8
Black
10
206.998
20
-94.8581
11
207.001
21
-94.854
0
LINE
8
Black
10
207.001
20
-94.854
11
207.006
21
-94.8514
0
LINE
8
Black
10
207.006
20
-94.8514
11
207.01
21
-94.848
0
LINE
8
Black
10
207.01
20
-94.848
11
207.015
21
-94.8462
0
LINE
8
Black
10
207.015
20
-94.8462
11
207.019
21
-94.8436
0
LINE
8
Black
10
207.019
20
-94.8436
11
207.025
21
-94.8427
0
LINE
8
Black
10
207.025
20
-94.8427
11
207.03
21
-94.8409
0
LINE
8
Black
10
207.03
20
-94.8409
11
207.035
21
-94.8409
0
LINE
8
Black
10
207.035
20
-94.8409
11
207.04
21
-94.84
0
LINE
8
Black
10
207.04
20
-94.84
11
257.96
21
-94.84
0
LINE
8
Black
10
257.96
20
-94.84
11
257.965
21
-94.8409
0
LINE
8
Black
10
207.1
20
-94.96
11
207.1
21
-97.44
0
LINE
8
Black
10
207.1
20
-97.44
11
209.64
21
-97.44
0
LINE
8
Black
10
209.64
20
-97.44
11
209.645
21
-97.4409
0
LINE
8
Black
10
209.645
20
-97.4409
11
209.65
21
-97.4409
0
LINE
8
Black
10
209.65
20
-97.4409
11
209.655
21
-97.4427
0
LINE
8
Black
10
209.655
20
-97.4427
11
209.661
21
-97.4436
0
LINE
8
Black
10
209.661
20
-97.4436
11
209.665
21
-97.4462
0
LINE
8
Black
10
209.665
20
-97.4462
11
209.67
21
-97.448
0
LINE
8
Black
10
209.67
20
-97.448
11
209.674
21
-97.4514
0
LINE
8
Black
10
209.674
20
-97.4514
11
209.679
21
-97.454
0
LINE
8
Black
10
209.679
20
-97.454
11
209.682
21
-97.4581
0
LINE
8
Black
10
209.682
20
-97.4581
11
209.686
21
-97.4614
0
LINE
8
Black
10
209.686
20
-97.4614
11
209.689
21
-97.466
0
LINE
8
Black
10
209.689
20
-97.466
11
209.692
21
-97.47
0
LINE
8
Black
10
209.692
20
-97.47
11
209.694
21
-97.4749
0
LINE
8
Black
10
209.694
20
-97.4749
11
209.696
21
-97.4795
0
LINE
8
Black
10
209.696
20
-97.4795
11
209.697
21
-97.4847
0
LINE
8
Black
10
209.697
20
-97.4847
11
209.699
21
-97.4896
0
LINE
8
Black
10
209.699
20
-97.4896
11
209.699
21
-97.4948
0
LINE
8
Black
10
209.699
20
-97.4948
11
209.7
21
-97.5
0
LINE
8
Black
10
209.7
20
-97.5
11
209.7
21
-100.04
0
LINE
8
Black
10
209.7
20
-100.04
11
257.9
21
-100.04
0
LINE
8
Black
10
257.9
20
-100.04
11
257.9
21
-94.96
0
LINE
8
Black
10
257.9
20
-94.96
11
207.1
21
-94.96
  0
ENDSEC
  0
EOF
